<?xml version="1.0" encoding="utf-8"?>
<!-- Generator: Adobe Illustrator 24.2.3, SVG Export Plug-In . SVG Version: 6.00 Build 0)  -->
<svg version="1.1" id="Layer_1" xmlns="http://www.w3.org/2000/svg" xmlns:xlink="http://www.w3.org/1999/xlink" x="0px" y="0px"
	 viewBox="0 0 44 49" style="enable-background:new 0 0 44 49;" xml:space="preserve">
<style type="text/css">
	.st0{fill:url(#SVGID_1_);}
	.st1{fill:#737274;}
	.st2{fill:#053E98;}
	.st3{fill:#0681DA;}
	.st4{fill:#42C4DD;}
	.st5{fill:#008DA8;}
	.st6{fill:#D5D10E;}
	.st7{fill:#817C00;}
	.st8{fill:#056F20;}
	.st9{fill:#46B838;}
</style>
<linearGradient id="SVGID_1_" gradientUnits="userSpaceOnUse" x1="0" y1="25.5364" x2="30.6472" y2="25.5364" gradientTransform="matrix(1 0 0 -1 0 49.8898)">
	<stop  offset="0.305" style="stop-color:#DCDDDE"/>
	<stop  offset="1" style="stop-color:#B7B8B9"/>
</linearGradient>
<path class="st0" d="M30.6,32.7L0,29.2v-9.8L30.6,16V32.7z"/>
<path class="st1" d="M30.9,32.7L44,29.1v-9.8L30.9,16V32.7z"/>
<path class="st2" d="M16.1,5.2l20.7,2.3V14l-20.7-1V5.2z"/>
<path class="st3" d="M15.9,5.2L7.1,8v6.6l8.7-1.6V5.2z"/>
<path class="st4" d="M16.5,0l-4.2,1.9v3.2l4.2-1.3V0z"/>
<path class="st5" d="M16.8,0l5.1,1.2v3.2l-5.1-0.6V0z"/>
<path class="st6" d="M16.5,48.7l-4.2-2v-3.2l4.2,1.4V48.7z"/>
<path class="st7" d="M16.8,48.7l5.1-1.2v-3.3l-5.1,0.7V48.7z"/>
<path class="st8" d="M15.9,43.4l20.8-2.3v-6.6l-20.8,1V43.4z"/>
<path class="st9" d="M15.7,43.4l-8.7-2.8V34l8.7,1.5V43.4z"/>
</svg>
