<svg id="Layer_1" data-name="Layer 1" xmlns="http://www.w3.org/2000/svg" xmlns:xlink="http://www.w3.org/1999/xlink" viewBox="0 0 183 96"><defs><style>.cls-1{fill:url(#linear-gradient);}.cls-2{fill:#737274;}.cls-3{fill:#053e98;}.cls-4{fill:#0681da;}.cls-5{fill:#42c4dd;}.cls-6{fill:#008da8;}.cls-7{fill:#d5d10e;}.cls-8{fill:#817c00;}.cls-9{fill:#056f20;}.cls-10{fill:#46b838;}.cls-11{fill:#002880;}.cls-12{fill:#fff;}</style><linearGradient id="linear-gradient" x1="6.93" y1="48.47" x2="36.88" y2="48.47" gradientTransform="matrix(1, 0, 0, -1, 0, 95.89)" gradientUnits="userSpaceOnUse"><stop offset="0.66" stop-color="#dcddde"/><stop offset="1" stop-color="#b7b8b9"/></linearGradient></defs><path class="cls-1" d="M36.88,55.62,6.93,52.2V42.59l30-3.37Z"/><path class="cls-2" d="M37.12,55.59,49.93,52.1V42.52l-12.81-3.3Z"/><path class="cls-3" d="M22.7,28.68,43,30.89v6.43l-20.28-1Z"/><path class="cls-4" d="M22.45,28.7l-8.54,2.77v6.45l8.54-1.59Z"/><path class="cls-5" d="M23.06,23.64,19,25.52v3.1l4.07-1.3Z"/><path class="cls-6" d="M23.3,23.62l5,1.15v3.11l-5-.58Z"/><path class="cls-7" d="M23.06,71.2l-4.07-2V66.14l4.07,1.37Z"/><path class="cls-8" d="M23.3,71.22l5-1.15V66.86l-5,.68Z"/><path class="cls-9" d="M22.48,66.07l20.29-2.22V57.42l-20.29,1Z"/><path class="cls-10" d="M22.24,66l-8.52-2.69V56.89l8.52,1.5Z"/><path class="cls-9" d="M117.48,56.92a7.56,7.56,0,0,1-.52,2.73A6.81,6.81,0,0,1,115.47,62a4.65,4.65,0,0,1-2.41,1.3L116.18,66h-3.24L110,63.4h-4.86V61.85h5.51a4,4,0,0,0,2-.53,4.11,4.11,0,0,0,1.91-2.45H103.87V66h-1.94V56.92Z"/><path class="cls-9" d="M121.56,64.48a.38.38,0,0,0,.27.14h3.71a.38.38,0,0,0,.27-.14.53.53,0,0,0,.21-.38V61.41a.53.53,0,0,0-.21-.38.42.42,0,0,0-.27-.14h-3.71a.42.42,0,0,0-.27.14.52.52,0,0,0-.2.38V64.1A.52.52,0,0,0,121.56,64.48Zm4,1.45h-3.71a1.71,1.71,0,0,1-1.78-1.81V61.39a1.72,1.72,0,0,1,1.78-1.82h3.71a1.73,1.73,0,0,1,1.79,1.82v2.73A1.72,1.72,0,0,1,125.54,65.93ZM137,59.57h1.52v6.35h-1.43v-3.8l-2,3.23h-1.27l-2-3.25v3.82h-1.43V59.57h1.51l2.57,4.14Zm7.08,4.07h3.06l-1.51-2.54Zm-.65,1.24-.77,1h-1.57L145,59.57h1.44l3.71,6.35h-1.62l-.69-1Zm15.34-.56V59.57h1.42v6.35h-1.64l-4.45-4.35v4.35H152.7V59.57H154Zm4.53,1.6V59.57h1.31v6.35Zm6.87-2.28h3.06l-1.51-2.54Zm-.65,1.24-.77,1H167.2l3.86-6.35h1.43l3.71,6.35h-1.62l-.69-1Z"/><path class="cls-11" d="M175.93,54.92h-116v-29h116Z"/><path class="cls-12" d="M94,40.43a8.18,8.18,0,0,1,3.27,4.25,15.37,15.37,0,0,1,1,5.4H64.93V31H98.22a12.84,12.84,0,0,1-1.94,7.17A9.48,9.48,0,0,1,94,40.43ZM89.83,42.2c-.26.09-.53.09-.88.18l-6.36.27H72.08V39.11H84c4.68,0,7.51-1.33,8.3-4.07h-23V45.92h23C91.6,43.71,90.8,42.47,89.83,42.2Z"/><path class="cls-12" d="M134.51,35H120v15h-4.15V35H101.22V31h33.29Z"/><path class="cls-12" d="M165.32,46V39.15h5.48v11H137.51c0-6.19,1.59-11.06,4.68-14.6,2.65-3,5.65-4.6,9-4.6h19.6V35H155.26c-4.24,0-7.51,1.24-9.63,3.81A10.93,10.93,0,0,0,143,46Z"/></svg>