<svg id="Layer_1" data-name="Layer 1" xmlns="http://www.w3.org/2000/svg" xmlns:xlink="http://www.w3.org/1999/xlink" viewBox="0 0 70 70"><defs><style>.cls-1{fill:none;}.cls-2{fill:#3dbc2a;}.cls-3{clip-path:url(#clip-path);}.cls-4{fill:#f7f8fa;}</style><clipPath id="clip-path"><rect class="cls-1" x="18.25" y="18.25" width="33.5" height="33.5"/></clipPath></defs><path class="cls-2" d="M35,0h0A35,35,0,0,1,70,35h0A35,35,0,0,1,35,70h0A35,35,0,0,1,0,35H0A35,35,0,0,1,35,0Z"/><g class="cls-3"><path class="cls-4" d="M48.79,33h3A16.87,16.87,0,0,0,37,18.25v3A14,14,0,0,1,48.79,33Z"/><path class="cls-4" d="M33,21.21v-3A16.87,16.87,0,0,0,18.25,33h3A14,14,0,0,1,33,21.21Z"/><path class="cls-4" d="M37,48.79v3A16.87,16.87,0,0,0,51.75,37h-3A14,14,0,0,1,37,48.79Z"/><path class="cls-4" d="M21.21,37h-3A16.87,16.87,0,0,0,33,51.75v-3A14,14,0,0,1,21.21,37Z"/><path class="cls-4" d="M27.57,33A7.74,7.74,0,0,1,33,27.57v-3A10.66,10.66,0,0,0,24.56,33Z"/><path class="cls-4" d="M27.57,37h-3A10.66,10.66,0,0,0,33,45.44v-3A7.73,7.73,0,0,1,27.57,37Z"/><path class="cls-4" d="M42.43,37A7.71,7.71,0,0,1,37,42.43v3A10.65,10.65,0,0,0,45.44,37Z"/><path class="cls-4" d="M42.43,33h3A10.65,10.65,0,0,0,37,24.56v3A7.73,7.73,0,0,1,42.43,33Z"/><path class="cls-4" d="M35.82,31.05V18.25H34.18v12.8a4.05,4.05,0,0,0-3.13,3.13H18.25v1.64h12.8A4.05,4.05,0,0,0,34.18,39v12.8h1.64V39A4.05,4.05,0,0,0,39,35.82h12.8V34.18H39A4.05,4.05,0,0,0,35.82,31.05Z"/></g></svg>