<svg id="Layer_1" data-name="Layer 1" xmlns="http://www.w3.org/2000/svg" xmlns:xlink="http://www.w3.org/1999/xlink" viewBox="0 0 70 70"><defs><style>.cls-1{fill:none;}.cls-2{fill:#30b8e3;}.cls-3{clip-path:url(#clip-path);}.cls-4{fill:#f7f8fa;}</style><clipPath id="clip-path"><rect class="cls-1" x="19.75" y="19.75" width="30.5" height="30.5"/></clipPath></defs><path class="cls-2" d="M35,0h0A35,35,0,0,1,70,35h0A35,35,0,0,1,35,70h0A35,35,0,0,1,0,35H0A35,35,0,0,1,35,0Z"/><g class="cls-3"><path class="cls-4" d="M35,19.75A15.25,15.25,0,1,0,50.25,35,15.27,15.27,0,0,0,35,19.75ZM33.92,39.07,28.65,33.8l.83-.83,4.44,4.44,8-8,.83.83Z"/></g></svg>