<svg id="Layer_1" data-name="Layer 1" xmlns="http://www.w3.org/2000/svg" viewBox="0 0 70 70"><defs><style>.cls-1{fill:#0655d1;}.cls-2{fill:#f7f8fa;}</style></defs><path class="cls-1" d="M35,0h0A35,35,0,0,1,70,35h0A35,35,0,0,1,35,70h0A35,35,0,0,1,0,35H0A35,35,0,0,1,35,0Z"/><path class="cls-2" d="M41.45,24.2H36.62a1.79,1.79,0,0,0-1.22.47l-5.52,5.06,0,0a2.23,2.23,0,0,0-.12,3.15,2.35,2.35,0,0,0,3.16.15h0l4.49-4.11a.9.9,0,0,1,1.22,1.32L37.16,31.6l8.19,6.65a3.58,3.58,0,0,1,.44.43V27.8l-3.07-3.08A1.8,1.8,0,0,0,41.45,24.2Zm6.15,3.61V40.4a1.79,1.79,0,0,0,1.8,1.8H53V27.81ZM50.3,40.4a.9.9,0,1,1,.9-.9A.9.9,0,0,1,50.3,40.4ZM17,42.2h3.6a1.8,1.8,0,0,0,1.8-1.8V27.81H17Zm2.7-3.6a.9.9,0,0,1,0,1.8.9.9,0,0,1,0-1.8Zm24.52,1-8.4-6.82-1.69,1.55a4,4,0,0,1-5.47-6l4.6-4.21H28.55a1.8,1.8,0,0,0-1.27.52L24.2,27.8V40.39h1L30.32,45a3.6,3.6,0,0,0,5.06-.53h0l1,.87a2.08,2.08,0,0,0,2.94-.3l1.77-2.17.3.25a1.8,1.8,0,0,0,2.53-.27l.54-.66A1.8,1.8,0,0,0,44.22,39.65Z"/></svg>