<svg id="Layer_1" data-name="Layer 1" xmlns="http://www.w3.org/2000/svg" viewBox="0 0 40 40"><defs><style>.cls-1{fill:#ffb900;}.cls-2{fill:#ffc250;}</style></defs><g id="XS78Hr.tif"><path class="cls-1" d="M20,32.5c-.27-.3-.55-.61-.82-.93A56.58,56.58,0,0,1,14,24.38,27.38,27.38,0,0,1,12,20.22a12.9,12.9,0,0,1-.72-2.44,7.59,7.59,0,0,1-.1-2.18,8.86,8.86,0,0,1,6.11-7.66,8.77,8.77,0,0,1,3.18-.43,8.86,8.86,0,0,1,8.43,7.89,8.76,8.76,0,0,1-.34,3.49,20.67,20.67,0,0,1-1.38,3.38,42,42,0,0,1-2.92,4.86c-1.13,1.65-2.33,3.25-3.61,4.78C20.42,32.12,20.19,32.3,20,32.5Zm0-2.11.05-.05c.47-.61.95-1.21,1.41-1.82a51,51,0,0,0,3.78-5.65A22.91,22.91,0,0,0,27,19.26a10.1,10.1,0,0,0,.53-2,6.81,6.81,0,0,0-.06-2.16,7.38,7.38,0,0,0-2.23-4.16,7.47,7.47,0,0,0-7.13-1.8,7.3,7.3,0,0,0-5.16,4.75,6.85,6.85,0,0,0-.3,3.83,13.34,13.34,0,0,0,.8,2.46,30.43,30.43,0,0,0,2.19,4.1,62.4,62.4,0,0,0,4,5.66Z"/><path class="cls-1" d="M20,13a3.43,3.43,0,1,1-3.43,3.43A3.41,3.41,0,0,1,20,13Zm0,1.37a2.06,2.06,0,1,0,2.06,2.07A2,2,0,0,0,20,14.35Z"/></g><path class="cls-2" d="M20,.75A19.25,19.25,0,1,1,.75,20,19.28,19.28,0,0,1,20,.75M20,0h0A20,20,0,0,0,0,20H0A20,20,0,0,0,20,40h0A20,20,0,0,0,40,20h0A20,20,0,0,0,20,0Z"/></svg>