<svg id="Layer_1" data-name="Layer 1" xmlns="http://www.w3.org/2000/svg" viewBox="0 0 40 40"><defs><style>.cls-1{fill:#ffc250;}.cls-2{fill:#ffb900;}</style></defs><path class="cls-1" d="M20,.75A19.25,19.25,0,1,1,.75,20,19.28,19.28,0,0,1,20,.75M20,0h0A20,20,0,0,0,0,20H0A20,20,0,0,0,20,40h0A20,20,0,0,0,40,20h0A20,20,0,0,0,20,0Z"/><path class="cls-2" d="M15.82,19.19,7.55,28.48a1.47,1.47,0,0,1,0-.29V11.81a1,1,0,0,1,.07-.35Zm15.82-8.51a1.16,1.16,0,0,0-.18,0H8.54a1.16,1.16,0,0,0-.18,0L20,21.58ZM20.33,22.79a.46.46,0,0,1-.66,0l-3-2.85L8.29,29.3a.71.71,0,0,0,.25.06H31.46a.71.71,0,0,0,.25-.06l-8.33-9.36Zm3.85-3.6,8.27,9.29a1.47,1.47,0,0,0,0-.29V11.81a1.35,1.35,0,0,0-.06-.35Z"/></svg>