<svg id="Layer_1" data-name="Layer 1" xmlns="http://www.w3.org/2000/svg" viewBox="0 0 40 40"><defs><style>.cls-1{fill:#ffc250;}.cls-2{fill:#ffb900;}</style></defs><path class="cls-1" d="M20,.75A19.25,19.25,0,1,1,.75,20,19.28,19.28,0,0,1,20,.75M20,0h0A20,20,0,0,0,0,20H0A20,20,0,0,0,20,40h0A20,20,0,0,0,40,20h0A20,20,0,0,0,20,0Z"/><g id="rTtcQJ.tif"><path class="cls-2" d="M12.72,32.5a10,10,0,0,0,3.62-.79,24.61,24.61,0,0,0,6.4-4,34.65,34.65,0,0,0,6.92-7.58,17,17,0,0,0,2.67-5.88,6.07,6.07,0,0,0-.18-3.53,7.3,7.3,0,0,0-.5-1,1.78,1.78,0,0,0-.84-.69l-3.5-1.49A.87.87,0,0,0,26.05,8c-1,1.66-2,3.33-3,5a1.12,1.12,0,0,0,0,1.23c.61,1.08,1.18,2.18,1.77,3.27a.94.94,0,0,1-.19,1.3l-5.79,5.8a1,1,0,0,1-1.35.18c-1.09-.58-2.19-1.16-3.28-1.76a1.06,1.06,0,0,0-1.17,0L8,26.09a.83.83,0,0,0-.39,1.1c.53,1.27,1.07,2.54,1.62,3.8a2.14,2.14,0,0,0,1,.93A5,5,0,0,0,12.72,32.5Z"/></g></svg>